<?xml version="1.0" encoding="utf-8"?>
<!-- Generator: Adobe Illustrator 22.0.0, SVG Export Plug-In . SVG Version: 6.00 Build 0)  -->
<svg version="1.1" id="Layer_1" xmlns="http://www.w3.org/2000/svg" xmlns:xlink="http://www.w3.org/1999/xlink" x="0px" y="0px"
	 viewBox="0 0 245.3 81.3" style="enable-background:new 0 0 245.3 81.3;" xml:space="preserve">
<style type="text/css">
	.st0{fill:#010101;}
	.st1{fill:#020202;}
	.st2{fill:#030303;}
	.st3{fill:#070707;}
	.st4{fill:#0B0B0B;}
	.st5{fill:none;stroke:#020202;stroke-miterlimit:10;}
</style>
<path class="st0" d="M158.5,36.8c-3.2,1.3-5.6,2.1-8.2-1.9c-3.2-4.9-11.1-3.1-13.2,2.7c-1.7,4.5-1.5,9.2,0.2,13.7
	c1,2.8,3.3,4.6,6.4,4.9c3.3,0.4,6.3-0.7,7.5-3.8c1.5-4,4-2.8,6.2-1.6c3.3,1.7,0.5,3.8-0.4,5.3c-3.7,6.2-12.4,8.1-19.4,4.4
	c-6.2-3.2-9.3-10.2-8.4-18.8c0.8-7.9,4.9-13.1,11.9-15C149.1,24.5,156,28.5,158.5,36.8z"/>
<path class="st1" d="M22.2,27.3c2.8,0,5.7,0.1,8.5,0c2.4-0.1,3.1,0.8,3.2,3.1c0,2.6-1.2,3-3.4,2.9c-3.2-0.1-6.3,0.2-9.5-0.1
	c-3.3-0.3-3.9,1.2-3.9,4c0,2.9,0.6,4.4,3.9,4.1c2.5-0.3,5,0.1,7.5-0.1c2.3-0.1,3.2,0.6,3.3,3.1c0,2.6-1.2,2.9-3.3,3
	c-3.6,0.2-8.2-1.7-10.5,0.9c-2.2,2.5-0.6,7-0.7,10.7c0,2.5-0.7,3.6-3.4,3.5c-2.4-0.1-3.7-0.4-3.6-3.3c0.1-9.5,0.1-19,0-28.5
	c0-2.6,0.9-3.6,3.5-3.4C16.6,27.4,19.4,27.3,22.2,27.3z"/>
<path class="st1" d="M87.7,49.1c0-3.2-0.1-6.3,0-9.5c0.1-3,3.4-5.1,5.1-2.9c2.1,2.7,2.8,0.9,4.3,0c6-3.5,12.5-0.5,13.1,6.4
	c0.5,5.4,0.2,11,0.3,16.4c0.1,2.7-1.5,2.7-3.5,2.8c-2.3,0.1-3.3-0.5-3.2-3c0.1-4.5,0.1-9-0.1-13.5c-0.1-2.6-0.5-5.3-3.8-5.5
	c-3.5-0.2-5.2,2-5.4,5.3c-0.3,4.5-0.4,9-0.3,13.4c0.1,2.8-1.2,3.3-3.6,3.3c-2.6,0-3.1-1.1-3-3.3C87.8,55.7,87.7,52.4,87.7,49.1z"/>
<path class="st0" d="M62,49.8c0,3,0,6,0,9c-0.1,3.2-4,5.4-5.3,3.1c-1.8-3.2-3.1-1-4.4-0.5c-7.2,2.7-12.4-0.6-12.7-8.1
	c-0.1-4.5,0-9-0.1-13.5c-0.1-2.3,0.3-3.7,3.2-3.7c2.7,0,3.4,1,3.3,3.5c-0.2,3.8-0.1,7.7,0,11.5c0.1,2.8,0.2,6.1,4.2,6
	c3.8-0.1,4.9-2.9,4.9-6.2c0.1-3.7,0.2-7.3,0-11c-0.1-2.7,0.6-3.8,3.6-3.8c2.8,0,3.3,1.2,3.2,3.6C61.9,43.1,62,46.4,62,49.8z"/>
<path class="st1" d="M222.6,41.1c-3.8-0.5-5.2,1.1-4.9,5c0.4,4.3-0.1,8.7,0.1,13c0.1,2.8-1.2,3.2-3.6,3.3c-2.6,0-3.5-0.8-3.4-3.4
	c0.2-4.3,0.1-8.7,0-13c-0.1-1.9,1-4.3-2.4-5c-1.4-0.3-1.1-3.6-0.4-3.8c3.5-0.9,2.7-4,3.6-6.2c1.4-3.3,8.8-5.1,11.4-2.9
	c0.8,0.6,0.8,1.4,0.7,2.2c-0.1,1.1-0.4,2-1.7,2.1c-1.9,0.2-4.7-0.5-4.2,2.6c0.4,2.5,3.1,0.8,4.6,1.5
	C222.6,38.8,222.6,38.8,222.6,41.1z"/>
<path class="st2" d="M224,36.4c2,0.1,3.2-0.5,2.9-2.8c-0.3-2,0.9-3.1,2.5-3.8c1.1-0.5,2.1-2.1,3.5-1.3c1.3,0.8,0.6,2.4,0.6,3.7
	c0.1,2.1-0.5,4.5,3.1,4.3c1.4-0.1,1.3,1.2,1.3,2.2c0,1.1,0.3,2.7-1.4,2.6c-3.5-0.1-2.9,2.3-2.9,4.4c0,2.3-0.1,4.6,0,7
	c0.1,2.2-0.7,4.9,3.2,4.8c1.7-0.1,1.3,1.6,1.5,2.7c0.2,1.3-0.8,1.7-1.7,2.1c-4.6,1.9-9.3-1-9.6-6.1c-0.2-3.8-0.2-7.6-0.1-11.4
	c0.1-2.2-0.3-3.6-2.9-3.3C224,36.4,224,41.2,224,36.4z"/>
<path class="st0" d="M68.7,49.2c0-3.3,0-6.6,0-10c0-1-0.3-3.1,1.2-2.7c4.1,0.9,7.8,0.1,11.6-1.1c1-0.3,3.1,0.4,2.9,1.9
	c-0.2,1.8-0.3,4.9-2.6,4.8c-6.5-0.2-6.1,4.3-6.5,8.4c-0.2,2.8-0.3,5.7-0.1,8.5c0.1,2.6-0.9,3.4-3.5,3.4c-2.4,0-3.2-0.9-3.1-3.2
	C68.8,55.8,68.7,52.5,68.7,49.2z"/>
<path class="st0" d="M164.7,49.2c0-3.2,0.2-6.3-0.1-9.5c-0.4-3.7,2.2-4.4,4.2-3.3c2.7,1.6,4.1,0.3,6.2-0.8c1.9-1,4.9-0.8,5.3,1.7
	c0.3,1.7,0,5-3.5,4.9c-3.8-0.2-5,2.1-5.2,5.3c-0.3,3.6-0.4,7.3-0.4,10.9c0,2.5-0.3,4-3.5,3.9c-2.9,0-3.2-1.5-3.1-3.7
	C164.8,55.5,164.7,52.3,164.7,49.2z"/>
<path class="st3" d="M123.8,49.3c0,3.1-0.1,6.3,0,9.4c0.1,2.3-0.3,3.6-3.2,3.6c-2.8,0-3.7-0.9-3.7-3.7c0.2-6.3,0.2-12.6,0-18.9
	c-0.1-2.9,1-3.6,3.8-3.6c3,0,3.2,1.5,3.1,3.7C123.7,43,123.8,46.2,123.8,49.3z"/>
<path class="st4" d="M120.7,33.2c-2.3,0.3-3.8-0.1-3.7-3c0-2.5,1-3.1,3.3-3c2.2,0,3.8,0.2,3.7,3.1C123.8,32.7,123,33.6,120.7,33.2z"
	/>
<path class="st1" d="M203.8,58.7c0,1.1,2,2.6,0,3.3c-1.5,0.5-4.1,1-4.7-0.2c-1.7-3.3-3.3-1.2-5-0.5c-6.7,2.8-12.9-1.3-12.2-7.9
	c0.4-3.6,2.6-5.6,5.9-6.6c1.9-0.6,3.8-1,5.8-1.5c1.6-0.4,3.7-0.3,3.3-2.7c-0.4-2.4-2.4-2.4-4.3-2.3c-0.8,0.1-1.9,0.2-2.3,0.7
	c-1.7,2.4-3.8,2.2-6.1,1.3c-0.7-0.3-1.3-0.6-1-1.3c0.9-2.5,2.6-4.1,5.2-5c9.7-3.5,15.6,1,15.3,11.7c0,1,0,2,0,3 M188.7,54.6
	c0,2.2,2,3.1,4,2.6c3.9-0.9,4.8-3.6,3.9-7.9C193.6,51,188.7,49.2,188.7,54.6z"/>
<path class="st5" d="M162.3,32.3V58c0,4.1-3.4,7.5-7.5,7.5h-140c-4.1,0-7.5-3.4-7.5-7.5V32.3c0-4.1,3.4-7.5,7.5-7.5h14.8
	c4.1,0,7.5,3.4,7.5,7.5v3l0.2-0.2c1.4-1.7,3.6-2.8,5.8-2.8h35.3c2.2,0,4.2,0.9,5.7,2.6l0.4,0.4l0.2-0.3c1.4-1.7,3.5-2.7,5.8-2.7
	h32.4c2.2,0,4.4,1,5.8,2.8l0.2,0.2v-3c0-4.1,3.4-7.5,7.5-7.5h18.5C159,24.8,162.3,28.1,162.3,32.3z"/>
<path class="st5" d="M17.3,73.5L17.3,73.5c-0.9,0-1.6-0.7-1.6-1.6v-6.4H19v6.4C19,72.8,18.2,73.5,17.3,73.5z"/>
<path class="st5" d="M153.2,73.5L153.2,73.5c-0.9,0-1.6-0.7-1.6-1.6v-6.4h3.3v6.4C154.8,72.8,154.1,73.5,153.2,73.5z"/>
<path class="st5" d="M24.2,22.8v-6.3c0-4.1,3.4-7.5,7.5-7.5h46.7c2.2,0,4.2,0.9,5.7,2.6l0.4,0.4l0.3-0.3C86.1,10,88.2,9,90.5,9h44.4
	c4.1,0,7.5,3.4,7.5,7.5v6.3"/>
</svg>
