<?xml version="1.0" encoding="utf-8"?>
<!-- Generator: Adobe Illustrator 22.0.0, SVG Export Plug-In . SVG Version: 6.00 Build 0)  -->
<svg version="1.1" id="Layer_1" xmlns="http://www.w3.org/2000/svg" xmlns:xlink="http://www.w3.org/1999/xlink" x="0px" y="0px"
	 viewBox="0 0 48 48" style="enable-background:new 0 0 48 48;" xml:space="preserve">
<path d="M24,4.3c6.4,0,7.2,0,9.7,0.1c2.7,0.1,5.3,0.7,7.2,2.7s2.5,4.5,2.7,7.2c0.1,2.5,0.1,3.3,0.1,9.7s0,7.1-0.1,9.7
	c-0.1,2.7-0.7,5.3-2.7,7.2s-4.5,2.5-7.2,2.7c-2.5,0.1-3.3,0.1-9.7,0.1s-7.1,0-9.7-0.1c-2.7-0.1-5.3-0.7-7.2-2.7s-2.5-4.5-2.7-7.2
	c-0.1-2.5-0.1-3.3-0.1-9.7s0-7.1,0.1-9.7c0.1-2.7,0.7-5.3,2.7-7.2s4.5-2.5,7.2-2.7C16.8,4.3,17.6,4.3,24,4.3z M24,0
	c-6.5,0-7.4-0.1-10,0c-2.6,0-4.5-0.3-6.8,0.9c-3,1.6,0,0-2.9,1.7C-0.4,5.1,0,12.8,0,24s0,12,0.1,14.6c0.1,2.6,0.7,4.8,2.6,6.7
	s4.2,2.4,6.7,2.6S12.8,48,24,48s12,0,14.6-0.1s4.8-0.7,6.7-2.6s2.4-4.2,2.6-6.7S48,35.2,48,24s0-12-0.1-14.6s-0.7-4.8-2.6-6.7
	s-4.2-2.4-6.7-2.6C31.3,0,30.5,0,24,0z M24,11.7c-6.8,0-12.3,5.5-12.3,12.3S17.2,36.3,24,36.3S36.3,30.8,36.3,24
	C36.3,17.2,30.8,11.7,24,11.7z M24,32c-4.4,0-8-3.6-8-8s3.6-8,8-8c4.4,0,8,3.6,8,8C32,28.4,28.4,32,24,32z M36.8,8.3
	c-1.6,0-2.9,1.3-2.9,2.9c0,1.6,1.3,2.9,2.9,2.9c1.6,0,2.9-1.3,2.9-2.9C39.7,9.6,38.4,8.3,36.8,8.3z"/>
</svg>
