<?xml version="1.0" encoding="utf-8"?>
<!-- Generator: Adobe Illustrator 22.0.0, SVG Export Plug-In . SVG Version: 6.00 Build 0)  -->
<svg version="1.1" id="Layer_1" xmlns="http://www.w3.org/2000/svg" xmlns:xlink="http://www.w3.org/1999/xlink" x="0px" y="0px"
	 viewBox="0 0 39.9 32.8" style="enable-background:new 0 0 39.9 32.8;" xml:space="preserve">
<title>twitter [#154]</title>
<desc>Created with Sketch.</desc>
<g id="Page-1">
	<g id="Dribbble-Light-Preview" transform="translate(-60.000000, -7521.000000)">
		<g id="icons" transform="translate(56.000000, 160.000000)">
			<path id="twitter-_x5B__x23_154_x5D_" d="M16.7,7393.4c14.8,0,22.9-12.1,22.9-22.5c0-0.3,0-0.7,0-1c1.6-1.1,2.9-2.5,4-4.1
				c-1.5,0.6-3,1.1-4.6,1.2c1.7-1,2.9-2.5,3.5-4.4c-1.6,0.9-3.3,1.6-5.1,1.9c-3-3.2-8.1-3.3-11.4-0.3c-2.1,1.9-3,4.8-2.3,7.6
				c-6.5-0.3-12.5-3.3-16.6-8.3c-2.1,3.6-1,8.2,2.5,10.6c-1.3,0-2.5-0.4-3.7-1v0.1c0,3.8,2.7,7,6.5,7.8c-1.2,0.3-2.4,0.4-3.6,0.1
				c1.1,3.2,4.1,5.4,7.5,5.5c-2.8,2.2-6.4,3.4-10,3.4c-0.6,0-1.3,0-1.9-0.1C8,7392.2,12.3,7393.4,16.7,7393.4"/>
		</g>
	</g>
</g>
</svg>
